<svg xmlns="http://www.w3.org/2000/svg" viewBox="0 0 512 512" role="img" aria-label="The Daily Session">
  <rect width="512" height="512" rx="108" fill="#3d2216"/>
  <rect x="96" y="108" width="320" height="260" rx="36" fill="#4a2412"/>
  <path d="M96 144c0-20 16-36 36-36h248c20 0 36 16 36 36v68H96z" fill="#c4572a"/>
  <rect x="158" y="76" width="30" height="92" rx="12" fill="#2b160f"/>
  <rect x="324" y="76" width="30" height="92" rx="12" fill="#2b160f"/>
  <g fill="#e8a060">
    <rect x="142" y="248" width="54" height="42" rx="9"/>
    <rect x="220" y="248" width="54" height="42" rx="9"/>
    <rect x="298" y="248" width="54" height="42" rx="9"/>
    <rect x="142" y="318" width="54" height="42" rx="9"/>
    <rect x="220" y="318" width="54" height="42" rx="9"/>
  </g>
  <g fill="#8d5d34">
    <rect x="298" y="318" width="54" height="42" rx="9"/>
    <rect x="142" y="388" width="54" height="42" rx="9"/>
    <rect x="220" y="388" width="54" height="42" rx="9"/>
    <rect x="298" y="388" width="54" height="42" rx="9"/>
  </g>
</svg>
